<?xml version="1.0" standalone="no"?><!DOCTYPE svg PUBLIC "-//W3C//DTD SVG 1.1//EN" "http://www.w3.org/Graphics/SVG/1.1/DTD/svg11.dtd"><svg t="1533209119727" class="icon" style="" viewBox="0 0 1024 1024" version="1.1" xmlns="http://www.w3.org/2000/svg" p-id="27032" xmlns:xlink="http://www.w3.org/1999/xlink" width="32" height="32"><defs><style type="text/css"></style></defs><path d="M955.325 813.4c-25.6-18.6-58.1-27.9-83.7-34.9-14-2.3-27.9-7-41.9-9.3-69.8-14-141.9-30.2-195.4-102.3-2.3-4.6-32.6-46.5 41.9-137.2 32.6-41.9 53.5-95.4 62.8-160.5 9.3-69.8 2.3-134.9-4.7-176.8-9.3-51.2-37.2-95.4-79.1-127.9-41.9-32.6-93-48.8-144.2-48.8-51.2 0-102.3 16.3-144.2 48.8-41.9 32.6-69.8 76.8-79.1 125.6-7 41.9-14 107-4.6 176.8 9.3 67.5 30.2 120.9 62.8 160.5 74.4 90.7 46.5 132.6 41.9 137.2-53.5 69.8-125.6 86.1-195.4 102.3-11.6 2.3-25.6 7-39.5 9.3-27.9 7-60.5 16.3-86.1 34.9C32.025 836.7 8.725 878.6 1.725 936.7c-2.3 32.6-2.3 62.8 0 74.4h1021c2.4-27.9 9.3-144.2-67.4-197.7zM512.025 969.4l-72.2-72.2L512.025 695l72.2 202.2-72.2 72.2z" p-id="27033" fill="#ffffff"></path></svg>