<?xml version="1.0" standalone="no"?><!DOCTYPE svg PUBLIC "-//W3C//DTD SVG 1.1//EN" "http://www.w3.org/Graphics/SVG/1.1/DTD/svg11.dtd"><svg t="1533210635493" class="icon" style="" viewBox="0 0 1024 1024" version="1.1" xmlns="http://www.w3.org/2000/svg" p-id="30141" xmlns:xlink="http://www.w3.org/1999/xlink" width="32" height="32"><defs><style type="text/css"></style></defs><path d="M997.98257664 19.39607779c-11.87697437-11.97710336-27.97451719-18.71604281-44.76365141-18.7160428l-385.2873546 0.02561479c-16.78098432 0-32.88667819 6.71332579-44.75550151 18.69857905L22.1275136 525.04359709c-11.86765938 11.98641721-18.53674155 28.23066169-18.53674155 45.17464746s6.66908217 33.18939421 18.53674155 45.16649756l385.27920469 388.83030472c12.3659776 12.47192861 28.56481451 18.71604281 44.76365142 18.7160428 16.20698681 0 32.40582371-6.24411421 44.75550151-18.7160428L997.98257664 498.55937763c11.86765938-11.98641721 18.54489145-28.23066169 18.54489145-45.18396245L1016.52746809 64.57072526C1016.52746809 47.62673949 1009.85023602 31.38133106 997.98257664 19.39607779zM721.08759837 426.61758635c-69.92639659 0-126.61708686-57.21229426-126.61708687-127.78138169s56.69069027-127.78138169 126.61708687-127.78138169 126.61708686 57.21229426 126.61708686 127.78138169S791.01399495 426.61758635 721.08759837 426.61758635z" p-id="30142" fill="#ffffff"></path></svg>