<?xml version="1.0" standalone="no"?><!DOCTYPE svg PUBLIC "-//W3C//DTD SVG 1.1//EN" "http://www.w3.org/Graphics/SVG/1.1/DTD/svg11.dtd"><svg t="1533204346641" class="icon" style="" viewBox="0 0 1024 1024" version="1.1" xmlns="http://www.w3.org/2000/svg" p-id="7206" xmlns:xlink="http://www.w3.org/1999/xlink" width="32" height="32"><defs><style type="text/css"></style></defs><path d="M512 102c-226.4 0-410 183.6-410 410 0 81.4 23.8 157.3 64.7 221.1l-45.9 171.3 171.7-46.1C356 898.6 431.2 922 512 922c226.4 0 410-183.6 410-410S738.4 102 512 102z m0 782.7c-70.9 0-139.9-20-199.5-57.8l-13.8-8.8-125.2 33.5 29.2-108.9 4.2-15.9L198 713c-38.5-60-58.8-129.4-58.8-201 0-205.5 167.2-372.7 372.7-372.7S884.6 306.5 884.6 512c0.1 205.5-167.1 372.7-372.6 372.7z m0 0" p-id="7207" fill="#707070"></path></svg>