<?xml version="1.0" standalone="no"?><!DOCTYPE svg PUBLIC "-//W3C//DTD SVG 1.1//EN" "http://www.w3.org/Graphics/SVG/1.1/DTD/svg11.dtd"><svg t="1533261062673" class="icon" style="" viewBox="0 0 1024 1024" version="1.1" xmlns="http://www.w3.org/2000/svg" p-id="4455" xmlns:xlink="http://www.w3.org/1999/xlink" width="32" height="32"><defs><style type="text/css"></style></defs><path d="M847.872 634.88l9.557333-2.389333a39.253333 39.253333 0 0 0 30.037334-48.128v-3.413334a39.936 39.936 0 0 0-48.469334-28.330666l-9.557333 2.389333-4.778667-8.874667 11.264-3.072a39.253333 39.253333 0 0 0 28.672-48.128v-4.778666a39.936 39.936 0 0 0-48.469333-28.330667l-11.264 2.730667-2.389333-8.874667 21.504-5.461333a39.253333 39.253333 0 0 0 28.672-48.128l-2.389334-8.874667a39.936 39.936 0 0 0-48.469333-28.330667l-21.162667 5.461334-3.072-11.605334h5.461334a39.253333 39.253333 0 0 0 28.672-48.128v-6.485333a39.936 39.936 0 0 0-48.469334-28.330667h-5.461333l-26.965333-102.4a48.128 48.128 0 0 0-58.368-34.133333l-321.536 78.848a47.445333 47.445333 0 0 0-34.133334 57.685333l9.216 34.133334c-28.330667 20.138667-62.122667 50.176-59.733333 72.021333a461.482667 461.482667 0 0 0 9.216 97.28c9.216 19.114667 42.325333 73.386667 20.48 100.693333a1627.477333 1627.477333 0 0 1-148.48 131.072 26.965333 26.965333 0 0 0 0 43.008c19.456 20.48 116.736 95.914667 129.024 108.544a58.709333 58.709333 0 0 0 85.674667-6.826666L443.733333 766.634667l21.845334 84.650666a48.128 48.128 0 0 0 58.368 34.133334l318.122666-79.530667a47.445333 47.445333 0 0 0 34.133334-57.685333l-29.354667-113.322667zM785.066667 713.728l-259.754667 64.853333A39.253333 39.253333 0 0 1 477.866667 750.933333l-4.437334-17.066666-46.421333-180.906667-30.037333-116.394667h88.405333s76.458667-3.413333 52.565333-44.032c-20.821333-34.133333-125.610667-92.501333-167.594666-100.693333a38.912 38.912 0 0 1 25.941333-18.773333l259.754667-64.853334a39.253333 39.253333 0 0 1 47.786666 27.989334L716.8 286.037333l-49.152 12.629334a39.253333 39.253333 0 0 0-28.672 48.128v6.485333a39.936 39.936 0 0 0 48.469333 28.330667l48.810667-12.629334 3.072 11.605334-68.266667 17.408a39.253333 39.253333 0 0 0-28.672 48.128l2.389334 8.874666a39.936 39.936 0 0 0 48.469333 28.330667l68.266667-17.408 2.389333 8.874667-43.008 10.922666a39.253333 39.253333 0 0 0-28.672 48.128v4.778667a39.936 39.936 0 0 0 48.469333 28.330667l44.373334-10.922667 2.389333 8.874667-29.696 7.509333a39.253333 39.253333 0 0 0-28.672 48.128v3.413333a39.936 39.936 0 0 0 48.469333 28.330667l29.354667-7.509333 5.461333 21.845333a38.912 38.912 0 0 1-27.306666 47.104z" fill="#1296db" p-id="4456"></path></svg>