<?xml version="1.0" standalone="no"?><!DOCTYPE svg PUBLIC "-//W3C//DTD SVG 1.1//EN" "http://www.w3.org/Graphics/SVG/1.1/DTD/svg11.dtd"><svg t="1533261221108" class="icon" style="" viewBox="0 0 1024 1024" version="1.1" xmlns="http://www.w3.org/2000/svg" p-id="6100" xmlns:xlink="http://www.w3.org/1999/xlink" width="32" height="32"><defs><style type="text/css"></style></defs><path d="M525.606515 564.012002m-26.335191 0a26.335191 26.335191 0 1 0 52.670382 0 26.335191 26.335191 0 1 0-52.670382 0Z" fill="#1296db" p-id="6101"></path><path d="M299.123875 131.675954m-131.675954 0a131.675954 131.675954 0 1 0 263.351908 0 131.675954 131.675954 0 1 0-263.351908 0Z" fill="#1296db" p-id="6102"></path><path d="M738.043721 131.675954m-131.675954 0a131.675954 131.675954 0 1 0 263.351907 0 131.675954 131.675954 0 1 0-263.351907 0Z" fill="#1296db" p-id="6103"></path><path d="M785.885984 580.690956V482.81183H928.973853c35.991427 0 65.837977-29.84655 65.837977-65.837977s-29.84655-65.837977-65.837977-65.837976H95.026147C59.034719 351.135877 29.18817 380.543506 29.18817 416.973853s29.84655 65.837977 65.837977 65.837977h142.21003v97.879126L38.405486 925.243035c-17.995714 31.163309-7.461637 71.982855 24.140592 89.978568s71.982855 7.461637 89.978568-24.140591l150.988427-261.596228 150.988427 261.596228c10.972996 18.434634 29.40763 29.84655 49.597943 32.480068h0.43892c1.755679 0 3.072439 0.43892 4.828118 0.43892h5.267038c1.755679 0 3.072439 0 4.828118-0.43892h0.43892c19.751393-2.194599 38.624946-13.606515 49.597943-32.480068l150.988427-261.596228 150.988427 261.596228c17.995714 31.163309 58.376339 42.136305 89.978568 24.140591s42.136305-58.376339 24.140592-89.978568l-199.70853-344.552079z m-131.675954 0l-142.64895 246.672953-142.64895-246.672953V482.81183h284.85898v97.879126z" fill="#1296db" p-id="6104"></path></svg>