<?xml version="1.0" standalone="no"?><!DOCTYPE svg PUBLIC "-//W3C//DTD SVG 1.1//EN" "http://www.w3.org/Graphics/SVG/1.1/DTD/svg11.dtd"><svg t="1533198733825" class="icon" style="" viewBox="0 0 1024 1024" version="1.1" xmlns="http://www.w3.org/2000/svg" p-id="4693" xmlns:xlink="http://www.w3.org/1999/xlink" width="64" height="64"><defs><style type="text/css"></style></defs><path d="M522.157 938.666q-50.784 0-86.333-35.549t-35.549-86.333h243.765q0 50.784-35.549 86.333t-86.333 35.549zM780.696 391.118v244.689l106.186 86.795v48.937h-520.771l379.499-509.691q35.087 60.018 35.087 129.269zM157.433 722.601l106.186-86.795v-244.689q0-94.182 60.48-166.203t152.816-87.718v-19.39q0-12.927 8.772-21.699t21.699-8.772h29.547q12.927 0 21.699 8.772t8.772 21.699v19.39q60.018 11.080 109.879 48.014l76.638-102.492q6.463-8.31 16.621-9.695t18.467 4.617 9.695 16.16-5.078 18.467l-79.407 107.109h0.923l-409.968 552.165h-0.923l-78.485 104.339q-7.386 10.157-19.39 10.157-8.31 0-14.774-4.617-8.31-6.463-9.695-16.621t4.155-18.467l56.325-74.792h-84.948v-48.937z" p-id="4694" fill="#707070"></path></svg>