<?xml version="1.0" standalone="no"?><!DOCTYPE svg PUBLIC "-//W3C//DTD SVG 1.1//EN" "http://www.w3.org/Graphics/SVG/1.1/DTD/svg11.dtd"><svg t="1533358375979" class="icon" style="" viewBox="0 0 1024 1024" version="1.1" xmlns="http://www.w3.org/2000/svg" p-id="9296" xmlns:xlink="http://www.w3.org/1999/xlink" width="32" height="32"><defs><style type="text/css"></style></defs><path d="M503.786917 0c304.677228 0 252.89131 310.101444 252.89131 361.529159 0 51.325371-28.707411 141.234321-75.324971 181.046025-46.61756 39.811704-61.662086 71.69177-62.58318 113.499175 0.409375 20.161711-21.031633 116.92769 164.261657 116.92769 185.395632 0 239.586627 108.177302 240.405377 250.435061H0c4.093748-87.401529 0-250.435061 204.329219-250.435061 204.380391 0 186.214382-76.706611 186.214382-116.92769 0-40.27225-28.298036-86.582779-63.401929-113.499175-35.052721-26.865224-75.632002-108.484334-77.627705-181.046025C247.518265 288.865124 199.160862 0 503.838089 0z" p-id="9297" fill="#1afa29"></path></svg>