<?xml version="1.0" standalone="no"?><!DOCTYPE svg PUBLIC "-//W3C//DTD SVG 1.1//EN" "http://www.w3.org/Graphics/SVG/1.1/DTD/svg11.dtd"><svg t="1533100827335" class="icon" style="" viewBox="0 0 1024 1024" version="1.1" xmlns="http://www.w3.org/2000/svg" p-id="1881" xmlns:xlink="http://www.w3.org/1999/xlink" width="200" height="200"><defs><style type="text/css"></style></defs><path d="M992.608083 934.569899 578.826522 520.778319 992.601208 107.00049c20.72091-20.717964 20.72091-54.31497 0-75.032933-20.720714-20.72091-54.312023-20.72091-75.032933 0l-413.774686 413.777829L90.015759 31.970503c-20.717964-20.716982-54.318506-20.716982-75.029594 0-20.721303 20.72091-20.721303 54.312023 0 75.032933L428.760655 520.778319 14.979487 934.569899c-20.714428 20.72091-20.714428 54.312023 0 75.032933 20.717964 20.708142 54.318506 20.708142 75.036469 0l413.777829-413.790597 413.781561 413.790597c20.72091 20.72091 54.312023 20.72091 75.032933 0C1013.322118 988.881922 1013.322118 955.290613 992.608083 934.569899z" p-id="1882"></path></svg>